<svg width="34" height="34" viewBox="0 0 34 34" fill="none" xmlns="http://www.w3.org/2000/svg">
<g clip-path="url(#clip0_98_3158)">
<path d="M16.9998 19.8333V31.1667H5.6665C5.6665 28.1609 6.86055 25.2782 8.98596 23.1528C11.1114 21.0274 13.9941 19.8333 16.9998 19.8333ZM16.9998 18.4167C12.3036 18.4167 8.49984 14.6129 8.49984 9.91667C8.49984 5.22042 12.3036 1.41667 16.9998 1.41667C21.6961 1.41667 25.4998 5.22042 25.4998 9.91667C25.4998 14.6129 21.6961 18.4167 16.9998 18.4167ZM29.7498 24.0833H31.1665V31.1667H19.8332V24.0833H21.2498V22.6667C21.2498 21.5395 21.6976 20.4585 22.4946 19.6615C23.2917 18.8644 24.3727 18.4167 25.4998 18.4167C26.627 18.4167 27.708 18.8644 28.505 19.6615C29.3021 20.4585 29.7498 21.5395 29.7498 22.6667V24.0833ZM26.9165 24.0833V22.6667C26.9165 22.2909 26.7672 21.9306 26.5016 21.6649C26.2359 21.3993 25.8756 21.25 25.4998 21.25C25.1241 21.25 24.7638 21.3993 24.4981 21.6649C24.2324 21.9306 24.0832 22.2909 24.0832 22.6667V24.0833H26.9165Z" fill="#1B6A76"/>
</g>
<defs>
<clipPath id="clip0_98_3158">
<rect width="34" height="34" fill="white"/>
</clipPath>
</defs>
</svg>
