<svg width="36" height="36" viewBox="0 0 36 36" fill="none" xmlns="http://www.w3.org/2000/svg">
<path fill-rule="evenodd" clip-rule="evenodd" d="M7.74544 18C7.74544 16.8568 7.93531 15.7608 8.27419 14.7328L2.34258 10.2032C1.18654 12.5504 0.535217 15.1952 0.535217 18C0.535217 20.8024 1.18574 23.4456 2.34018 25.7912L8.26859 21.2528C7.93291 20.2296 7.74544 19.1376 7.74544 18Z" fill="#FBBC05"/>
<path fill-rule="evenodd" clip-rule="evenodd" d="M18.1602 7.59996C20.6437 7.59996 22.8869 8.47996 24.6494 9.91996L29.7767 4.79996C26.6523 2.07996 22.6466 0.399963 18.1602 0.399963C11.1951 0.399963 5.20906 4.38316 2.34259 10.2032L8.2742 14.7328C9.64094 10.584 13.5369 7.59996 18.1602 7.59996Z" fill="#EB4335"/>
<path fill-rule="evenodd" clip-rule="evenodd" d="M18.1602 28.4C13.5369 28.4 9.64094 25.416 8.2742 21.2672L2.34259 25.796C5.20906 31.6168 11.1951 35.6 18.1602 35.6C22.4591 35.6 26.5633 34.0736 29.6437 31.2136L24.0133 26.8608C22.4247 27.8616 20.4242 28.4 18.1602 28.4Z" fill="#34A853"/>
<path fill-rule="evenodd" clip-rule="evenodd" d="M34.9841 18C34.9841 16.96 34.8239 15.84 34.5835 14.8H18.1602V21.6H27.6136C27.141 23.9184 25.8543 25.7008 24.0133 26.8608L29.6437 31.2136C32.8795 28.2104 34.9841 23.7368 34.9841 18Z" fill="#4285F4"/>
</svg>
