<svg width="36" height="36" viewBox="0 0 36 36" fill="none" xmlns="http://www.w3.org/2000/svg">
<path d="M18 21.75V24.75M10.5 15.0432C11.2071 15 12.0789 15 13.2 15H22.8C23.9211 15 24.7929 15 25.5 15.0432M10.5 15.0432C9.61752 15.0971 8.99144 15.2182 8.45705 15.4905C7.61031 15.9219 6.9219 16.6102 6.49047 17.457C6 18.4197 6 19.6797 6 22.2V24.3C6 26.8203 6 28.0803 6.49047 29.043C6.9219 29.8897 7.61031 30.5781 8.45705 31.0095C9.41964 31.5 10.6798 31.5 13.2 31.5H22.8C25.3203 31.5 26.5803 31.5 27.543 31.0095C28.3897 30.5781 29.0781 29.8897 29.5095 29.043C30 28.0803 30 26.8203 30 24.3V22.2C30 19.6797 30 18.4197 29.5095 17.457C29.0781 16.6102 28.3897 15.9219 27.543 15.4905C27.0085 15.2182 26.3824 15.0971 25.5 15.0432M10.5 15.0432V12C10.5 7.85787 13.8579 4.5 18 4.5C22.1421 4.5 25.5 7.85787 25.5 12V15.0432" stroke="#1B6A76" stroke-width="2" stroke-linecap="round" stroke-linejoin="round"/>
</svg>
