<svg width="35" height="35" viewBox="0 0 35 35" fill="none" xmlns="http://www.w3.org/2000/svg">
<path d="M24.2513 20.2575L24.9156 19.597L23.3731 18.0458L22.709 18.7063L24.2513 20.2575ZM27.1463 19.3204L29.9324 20.835L30.9772 18.9132L28.191 17.3986L27.1463 19.3204ZM30.4688 23.8453L28.3971 25.9052L29.9394 27.4564L32.0111 25.3965L30.4688 23.8453ZM27.1348 26.5685C25.0203 26.7655 19.5498 26.5899 13.6269 20.7006L12.0845 22.2518C18.5479 28.6785 24.6996 28.9924 27.3378 28.7465L27.1348 26.5685ZM13.6269 20.7006C7.98116 15.0869 7.04594 10.3653 6.92952 8.31691L4.74555 8.44103C4.89206 11.0191 6.05008 16.2516 12.0845 22.2518L13.6269 20.7006ZM15.6326 11.6876L16.0508 11.2717L14.5085 9.72056L14.0902 10.1364L15.6326 11.6876ZM16.3838 5.97039L14.5449 3.51398L12.7937 4.82493L14.6326 7.28136L16.3838 5.97039ZM8.36007 2.97932L6.07108 5.25533L7.61347 6.80653L9.90247 4.53052L8.36007 2.97932ZM14.8614 10.912C14.0902 10.1364 14.0892 10.1375 14.0881 10.1385C14.0878 10.1389 14.0867 10.1399 14.086 10.1407C14.0846 10.1421 14.0831 10.1436 14.0817 10.1451C14.0787 10.1481 14.0756 10.1512 14.0725 10.1545C14.0662 10.161 14.0595 10.1681 14.0525 10.1758C14.0384 10.191 14.023 10.2085 14.0064 10.2282C13.9734 10.2677 13.9359 10.3163 13.8965 10.3744C13.8176 10.4909 13.7316 10.6449 13.6586 10.8386C13.5096 11.2339 13.4298 11.755 13.5299 12.4002C13.7257 13.6621 14.5947 15.3289 16.8208 17.5424L18.3632 15.9912C16.2799 13.9197 15.7837 12.6592 15.6915 12.0649C15.6476 11.7821 15.6931 11.6429 15.7057 11.6099C15.7132 11.5895 15.7169 11.5874 15.7076 11.6014C15.7029 11.6082 15.6952 11.6188 15.6831 11.6332C15.6771 11.6404 15.6699 11.6485 15.6616 11.6576C15.6574 11.6621 15.653 11.6669 15.6481 11.6719C15.6457 11.6744 15.6432 11.677 15.6406 11.6796C15.6393 11.6809 15.638 11.6822 15.6367 11.6836C15.6361 11.6842 15.6351 11.6853 15.6346 11.6856C15.6336 11.6866 15.6326 11.6876 14.8614 10.912ZM16.8208 17.5424C19.0477 19.7566 20.7223 20.6183 21.9863 20.8123C22.6322 20.9113 23.1529 20.8323 23.548 20.6851C23.7417 20.6129 23.8959 20.5279 24.0126 20.4497C24.0709 20.4107 24.1197 20.3735 24.1592 20.3406C24.179 20.3243 24.1965 20.309 24.2118 20.295C24.2196 20.288 24.2267 20.2814 24.2333 20.2752C24.2366 20.272 24.2397 20.2689 24.2427 20.266C24.2442 20.2645 24.2457 20.2631 24.2471 20.2616C24.2478 20.2609 24.249 20.2599 24.2493 20.2596C24.2503 20.2585 24.2513 20.2575 23.4802 19.4818C22.709 18.7063 22.71 18.7053 22.7111 18.7043C22.7113 18.704 22.7124 18.7029 22.7131 18.7022C22.7144 18.7009 22.7157 18.6996 22.717 18.6983C22.7198 18.6958 22.7223 18.6933 22.7248 18.6908C22.7299 18.686 22.7347 18.6816 22.7392 18.6774C22.7482 18.6693 22.7564 18.6621 22.7637 18.6563C22.778 18.6443 22.7886 18.6367 22.7952 18.6322C22.8088 18.6232 22.806 18.6273 22.7844 18.6353C22.7487 18.6485 22.6056 18.6942 22.318 18.65C21.7153 18.5577 20.4458 18.0619 18.3632 15.9912L16.8208 17.5424ZM14.5449 3.51398C13.0584 1.52832 10.1353 1.21412 8.36007 2.97932L9.90247 4.53052C10.6778 3.75954 12.0549 3.83802 12.7937 4.82493L14.5449 3.51398ZM6.92952 8.31691C6.90084 7.81217 7.13233 7.28492 7.61347 6.80653L6.07108 5.25533C5.28748 6.03447 4.67145 7.13741 4.74555 8.44103L6.92952 8.31691ZM28.3971 25.9052C27.9963 26.3038 27.5667 26.5282 27.1348 26.5685L27.3378 28.7465C28.409 28.6466 29.2868 28.1054 29.9394 27.4564L28.3971 25.9052ZM16.0508 11.2717C17.4866 9.84415 17.5933 7.58607 16.3838 5.97039L14.6326 7.28136C15.2211 8.06737 15.1336 9.09906 14.5085 9.72056L16.0508 11.2717ZM29.9324 20.835C31.1251 21.4834 31.3108 23.0079 30.4688 23.8453L32.0111 25.3965C33.9657 23.453 33.363 20.2101 30.9772 18.9132L29.9324 20.835ZM24.9156 19.597C25.4756 19.0403 26.377 18.9023 27.1463 19.3204L28.191 17.3986C26.6108 16.5395 24.6496 16.7768 23.3731 18.0458L24.9156 19.597Z" fill="#1B6A76"/>
</svg>
