<svg width="36" height="36" viewBox="0 0 36 36" fill="none" xmlns="http://www.w3.org/2000/svg">
<path d="M26.2125 9.45009L24.5475 7.2001C24.4404 7.05729 24.301 6.942 24.1406 6.86376C23.9802 6.78551 23.8034 6.74656 23.625 6.7501H12.6C12.4376 6.75009 12.2769 6.78528 12.1293 6.85325C11.9817 6.92122 11.8507 7.02036 11.745 7.14384L9.81002 9.39385C9.64384 9.60077 9.55618 9.85978 9.56252 10.1251V18.3264C9.56549 20.2857 10.3452 22.164 11.7306 23.5494C13.1162 24.935 14.9944 25.7146 16.9538 25.7176H19.0463C21.0057 25.7146 22.8839 24.935 24.2694 23.5494C25.6549 22.164 26.4346 20.2857 26.4375 18.3264V10.1251C26.4375 9.88167 26.3585 9.64483 26.2125 9.45009Z" fill="#FFCC80"/>
<path d="M33.5025 31.9275L29.0025 26.3025C28.872 26.1362 28.6973 26.0098 28.4983 25.9383C28.2992 25.8666 28.0841 25.8525 27.8775 25.8975L18 28.125L8.12248 25.875C7.91585 25.83 7.7007 25.8441 7.50173 25.9158C7.30274 25.9873 7.12798 26.1137 6.99748 26.28L2.49748 31.905C2.3669 32.0697 2.28504 32.2676 2.26118 32.4764C2.23732 32.6851 2.27241 32.8965 2.36248 33.0863C2.45041 33.2819 2.59244 33.4484 2.77183 33.566C2.95122 33.6836 3.1605 33.7475 3.37498 33.75H32.625C32.837 33.7495 33.0446 33.689 33.2237 33.5754C33.4029 33.462 33.5464 33.3003 33.6375 33.1088C33.7276 32.919 33.7626 32.7076 33.7387 32.4989C33.7149 32.2901 33.6331 32.0922 33.5025 31.9275Z" fill="#1B6A76"/>
<path d="M32.9512 6.75008L18.3262 2.25008C18.1124 2.19382 17.8876 2.19382 17.6737 2.25008L3.04874 6.75008C2.80959 6.8223 2.60128 6.97207 2.45665 7.17576C2.31203 7.37945 2.23932 7.62549 2.24999 7.87508C2.24065 8.12758 2.31659 8.37587 2.46557 8.57996C2.61454 8.78404 2.8279 8.93203 3.07124 9.00008L17.6962 13.05C17.8942 13.1101 18.1057 13.1101 18.3037 13.05L32.9287 9.00008C33.1721 8.93203 33.3854 8.78404 33.5344 8.57996C33.6834 8.37587 33.7593 8.12758 33.75 7.87508C33.7607 7.62549 33.6879 7.37945 33.5433 7.17576C33.3986 6.97207 33.1904 6.8223 32.9512 6.75008Z" fill="#1B6A76"/>
<path d="M12.6225 6.75C12.4601 6.74999 12.2994 6.78518 12.1518 6.85315C12.0042 6.92112 11.8731 7.02026 11.7675 7.14375L9.8325 9.39375C9.65823 9.59753 9.56248 9.85687 9.5625 10.125V18.3263C9.56547 20.2857 10.3452 22.1638 11.7306 23.5494C13.1162 24.9348 14.9943 25.7146 16.9537 25.7175H18V6.75H12.6225Z" fill="#FFE0B2"/>
<path d="M8.12248 25.875C7.91585 25.83 7.7007 25.8441 7.50173 25.9158C7.30274 25.9873 7.12798 26.1137 6.99748 26.28L2.49748 31.905C2.3669 32.0697 2.28504 32.2676 2.26118 32.4764C2.23732 32.6851 2.27241 32.8965 2.36248 33.0863C2.45041 33.2819 2.59244 33.4484 2.77183 33.566C2.95122 33.6836 3.1605 33.7475 3.37498 33.75H18V28.125L8.12248 25.875Z" fill="#1B6A76"/>
<path d="M17.6737 2.25L3.04874 6.75C2.80959 6.82222 2.60128 6.97198 2.45665 7.17567C2.31203 7.37938 2.23932 7.62541 2.24999 7.875C2.24065 8.1275 2.31659 8.3758 2.46557 8.57988C2.61454 8.78396 2.8279 8.93196 3.07124 9L17.6962 13.05C17.7968 13.0664 17.8994 13.0664 18 13.05V2.25C17.8919 2.23275 17.7819 2.23275 17.6737 2.25Z" fill="#1B6A76"/>
</svg>
